<svg width="68" height="68" viewBox="0 0 68 68" fill="none" xmlns="http://www.w3.org/2000/svg">
<g filter="url(#filter0_d_905_35)">
<circle cx="34" cy="32" r="24" fill="url(#paint0_linear_905_35)"/>
</g>
<path fill-rule="evenodd" clip-rule="evenodd" d="M29.465 21.066C30.638 21.012 31.012 21 34 21C36.988 21 37.362 21.013 38.534 21.066C39.706 21.119 40.506 21.306 41.206 21.577C41.939 21.854 42.604 22.287 43.154 22.847C43.714 23.396 44.146 24.06 44.422 24.794C44.694 25.494 44.88 26.294 44.934 27.464C44.988 28.639 45 29.013 45 32C45 34.988 44.987 35.362 44.934 36.535C44.881 37.705 44.694 38.505 44.422 39.205C44.146 39.9391 43.7133 40.6042 43.154 41.154C42.604 41.714 41.939 42.146 41.206 42.422C40.506 42.694 39.706 42.88 38.536 42.934C37.362 42.988 36.988 43 34 43C31.012 43 30.638 42.987 29.465 42.934C28.295 42.881 27.495 42.694 26.795 42.422C26.0609 42.146 25.3958 41.7133 24.846 41.154C24.2864 40.6047 23.8533 39.9399 23.577 39.206C23.306 38.506 23.12 37.706 23.066 36.536C23.012 35.361 23 34.987 23 32C23 29.012 23.013 28.638 23.066 27.466C23.119 26.294 23.306 25.494 23.577 24.794C23.8537 24.0601 24.2871 23.3953 24.847 22.846C25.396 22.2865 26.0605 21.8534 26.794 21.577C27.494 21.306 28.294 21.12 29.464 21.066H29.465ZM38.445 23.046C37.285 22.993 36.937 22.982 34 22.982C31.063 22.982 30.715 22.993 29.555 23.046C28.482 23.095 27.9 23.274 27.512 23.425C26.999 23.625 26.632 23.862 26.247 24.247C25.882 24.6021 25.6012 25.0343 25.425 25.512C25.274 25.9 25.095 26.482 25.046 27.555C24.993 28.715 24.982 29.063 24.982 32C24.982 34.937 24.993 35.285 25.046 36.445C25.095 37.518 25.274 38.1 25.425 38.488C25.601 38.965 25.882 39.398 26.247 39.753C26.602 40.118 27.035 40.399 27.512 40.575C27.9 40.726 28.482 40.905 29.555 40.954C30.715 41.007 31.062 41.018 34 41.018C36.938 41.018 37.285 41.007 38.445 40.954C39.518 40.905 40.1 40.726 40.488 40.575C41.001 40.375 41.368 40.138 41.753 39.753C42.118 39.398 42.399 38.965 42.575 38.488C42.726 38.1 42.905 37.518 42.954 36.445C43.007 35.285 43.018 34.937 43.018 32C43.018 29.063 43.007 28.715 42.954 27.555C42.905 26.482 42.726 25.9 42.575 25.512C42.375 24.999 42.138 24.632 41.753 24.247C41.3979 23.8821 40.9657 23.6012 40.488 23.425C40.1 23.274 39.518 23.095 38.445 23.046ZM32.595 35.391C33.3797 35.7176 34.2534 35.7617 35.0669 35.5157C35.8805 35.2697 36.5834 34.7489 37.0556 34.0422C37.5278 33.3356 37.7401 32.4869 37.656 31.6411C37.572 30.7953 37.197 30.005 36.595 29.405C36.2112 29.0215 35.7472 28.7278 35.2363 28.5451C34.7255 28.3625 34.1804 28.2954 33.6405 28.3486C33.1006 28.4019 32.5792 28.5742 32.1138 28.8531C31.6485 29.1321 31.2507 29.5107 30.9493 29.9619C30.6479 30.413 30.4502 30.9253 30.3705 31.462C30.2908 31.9986 30.3312 32.5463 30.4885 33.0655C30.6459 33.5847 30.9165 34.0626 31.2807 34.4647C31.645 34.8668 32.0938 35.1832 32.595 35.391ZM30.002 28.002C30.527 27.477 31.1503 27.0605 31.8363 26.7764C32.5223 26.4922 33.2575 26.346 34 26.346C34.7425 26.346 35.4777 26.4922 36.1637 26.7764C36.8497 27.0605 37.473 27.477 37.998 28.002C38.523 28.527 38.9395 29.1503 39.2236 29.8363C39.5078 30.5223 39.654 31.2575 39.654 32C39.654 32.7425 39.5078 33.4777 39.2236 34.1637C38.9395 34.8497 38.523 35.473 37.998 35.998C36.9377 37.0583 35.4995 37.654 34 37.654C32.5005 37.654 31.0623 37.0583 30.002 35.998C28.9417 34.9377 28.346 33.4995 28.346 32C28.346 30.5005 28.9417 29.0623 30.002 28.002ZM40.908 27.188C41.0381 27.0653 41.1423 26.9177 41.2143 26.754C41.2863 26.5903 41.3248 26.4138 41.3274 26.2349C41.33 26.0561 41.2967 25.8785 41.2295 25.7128C41.1622 25.5471 41.0624 25.3965 40.936 25.27C40.8095 25.1436 40.6589 25.0438 40.4932 24.9765C40.3275 24.9093 40.1499 24.876 39.9711 24.8786C39.7922 24.8812 39.6157 24.9197 39.452 24.9917C39.2883 25.0637 39.1407 25.1679 39.018 25.298C38.7793 25.551 38.6486 25.8871 38.6537 26.2349C38.6588 26.5827 38.7992 26.9149 39.0452 27.1608C39.2911 27.4068 39.6233 27.5472 39.9711 27.5523C40.3189 27.5574 40.655 27.4267 40.908 27.188Z" fill="#FEF4F4"/>
<defs>
<filter id="filter0_d_905_35" x="0" y="0" width="68" height="68" filterUnits="userSpaceOnUse" color-interpolation-filters="sRGB">
<feFlood flood-opacity="0" result="BackgroundImageFix"/>
<feColorMatrix in="SourceAlpha" type="matrix" values="0 0 0 0 0 0 0 0 0 0 0 0 0 0 0 0 0 0 127 0" result="hardAlpha"/>
<feOffset dy="2"/>
<feGaussianBlur stdDeviation="5"/>
<feComposite in2="hardAlpha" operator="out"/>
<feColorMatrix type="matrix" values="0 0 0 0 0.752941 0 0 0 0 0.117647 0 0 0 0 0.160784 0 0 0 0.25 0"/>
<feBlend mode="normal" in2="BackgroundImageFix" result="effect1_dropShadow_905_35"/>
<feBlend mode="normal" in="SourceGraphic" in2="effect1_dropShadow_905_35" result="shape"/>
</filter>
<linearGradient id="paint0_linear_905_35" x1="20" y1="8" x2="48" y2="56" gradientUnits="userSpaceOnUse">
<stop stop-color="#BC0E19"/>
<stop offset="1" stop-color="#DB202C"/>
</linearGradient>
</defs>
</svg>
