<svg width="54" height="54" viewBox="0 0 54 54" fill="none" xmlns="http://www.w3.org/2000/svg">
<circle cx="27" cy="27" r="24" fill="#5F7ADB" stroke="#1A1C22" stroke-width="5"/>
<path d="M32.1615 19.5646L32.1616 19.5646C32.5206 19.462 32.8049 19.3812 33.0312 19.3349C33.261 19.2879 33.4674 19.2681 33.6565 19.3171L33.7817 18.834L33.6565 19.3171C34.0959 19.431 34.4391 19.7741 34.553 20.2136C34.602 20.4026 34.5821 20.609 34.5352 20.8389C34.4889 21.0652 34.408 21.3495 34.3054 21.7085L34.3054 21.7085L30.3328 35.6126L30.8136 35.7499L30.3328 35.6126C30.2039 36.0638 30.1027 36.417 30.0055 36.6808C29.9087 36.9433 29.8007 37.1637 29.6345 37.3066C29.2557 37.6322 28.7194 37.7011 28.2707 37.4817C28.0738 37.3855 27.9136 37.1995 27.7537 36.97C27.593 36.7393 27.4057 36.4231 27.167 36.0191L26.7366 36.2734L27.167 36.019L24.2628 31.1041C24.0653 30.7701 23.9763 30.6203 23.8722 30.486L23.4932 30.7798L23.8722 30.486C23.7307 30.3034 23.5667 30.1394 23.3841 29.9979L23.3841 29.9978C23.2498 29.8937 23.1 29.8047 22.7659 29.6073L17.851 26.7031L17.851 26.7031C17.447 26.4643 17.1308 26.2771 16.9001 26.1164L16.6564 26.4662L16.9001 26.1164C16.6706 25.9565 16.4846 25.7962 16.3884 25.5994L15.9392 25.819L16.3884 25.5994C16.169 25.1506 16.2379 24.6143 16.5635 24.2355C16.7063 24.0694 16.9268 23.9613 17.1892 23.8646C17.4531 23.7674 17.8063 23.6661 18.2576 23.5372L18.2576 23.5372L32.1615 19.5646ZM33.567 19.8114C33.5169 19.7957 33.4646 19.788 33.4121 19.7886C33.3602 19.7891 33.2748 19.7955 33.1313 19.8248C32.9221 19.8675 32.6509 19.9448 32.2715 20.0532L18.4237 24.0098C17.9511 24.1448 17.6101 24.2424 17.3621 24.3338C17.1857 24.3988 17.0983 24.4467 17.0555 24.472C16.9974 24.5063 16.9469 24.5521 16.9069 24.6064C16.7539 24.8147 16.719 25.0872 16.8144 25.3273C16.8393 25.39 16.8766 25.447 16.9241 25.4949C16.9592 25.5302 17.0317 25.5987 17.1859 25.7061C17.4028 25.8572 17.7081 26.0378 18.1312 26.2878L23.0583 29.1993L23.0583 29.1993C23.2399 29.3065 23.3749 29.3864 23.4924 29.463C23.6904 29.592 23.9518 29.5647 24.1189 29.3976L27.5511 25.9654C27.6487 25.8677 27.807 25.8677 27.9047 25.9654C28.0023 26.063 28.0023 26.2213 27.9047 26.3189L24.4724 29.7512C24.3053 29.9183 24.278 30.1796 24.4071 30.3776C24.4836 30.4952 24.5635 30.6302 24.6707 30.8117L24.6708 30.8118L27.5822 35.7389C27.8323 36.162 28.0128 36.4673 28.1639 36.6842C28.2714 36.8384 28.3399 36.9109 28.3752 36.9459C28.4231 36.9935 28.4801 37.0308 28.5428 37.0557C28.7829 37.1511 29.0554 37.1161 29.2636 36.9632C29.318 36.9232 29.3638 36.8726 29.3981 36.8145C29.4234 36.7717 29.4713 36.6843 29.5363 36.5079C29.6277 36.2599 29.7253 35.9189 29.8603 35.4464L33.8168 21.5985C33.9252 21.2192 34.0025 20.948 34.0453 20.7387L33.5554 20.6386L34.0453 20.7387C34.0746 20.5953 34.0809 20.5098 34.0815 20.4579C34.0821 20.4054 34.0744 20.3532 34.0587 20.3031C33.9853 20.0685 33.8015 19.8848 33.567 19.8114Z" fill="#FEF4F4" stroke="#FEF4F4" stroke-linecap="round" stroke-linejoin="round"/>
</svg>
