<svg width="68" height="68" viewBox="0 0 68 68" fill="none" xmlns="http://www.w3.org/2000/svg">
<g filter="url(#filter0_d_905_36)">
<circle cx="34" cy="32" r="24" fill="#1A1C22"/>
</g>
<path d="M45.643 24.937C44.808 25.307 43.911 25.557 42.968 25.67C43.941 25.0877 44.669 24.1714 45.016 23.092C44.1019 23.6349 43.1014 24.0172 42.058 24.222C41.3564 23.4728 40.4271 22.9763 39.4143 22.8094C38.4016 22.6426 37.3621 22.8147 36.4572 23.2992C35.5524 23.7837 34.8328 24.5533 34.4102 25.4887C33.9875 26.424 33.8855 27.4727 34.12 28.472C32.2677 28.379 30.4556 27.8975 28.8014 27.0589C27.1472 26.2202 25.6879 25.0431 24.518 23.604C24.118 24.294 23.888 25.094 23.888 25.946C23.8876 26.713 24.0764 27.4682 24.4379 28.1447C24.7993 28.8212 25.3222 29.398 25.96 29.824C25.2203 29.8004 24.4969 29.6005 23.85 29.241V29.301C23.8499 30.3767 24.222 31.4193 24.9032 32.252C25.5843 33.0846 26.5326 33.6559 27.587 33.869C26.9008 34.0547 26.1813 34.082 25.483 33.949C25.7805 34.8746 26.36 35.684 27.1404 36.2639C27.9208 36.8438 28.8629 37.1651 29.835 37.183C28.1848 38.4784 26.1469 39.181 24.049 39.178C23.6774 39.1781 23.3061 39.1564 22.937 39.113C25.0665 40.4821 27.5454 41.2088 30.077 41.206C38.647 41.206 43.332 34.108 43.332 27.952C43.332 27.752 43.327 27.55 43.318 27.35C44.2293 26.6909 45.0159 25.8749 45.641 24.94L45.643 24.937Z" fill="white"/>
<defs>
<filter id="filter0_d_905_36" x="0" y="0" width="68" height="68" filterUnits="userSpaceOnUse" color-interpolation-filters="sRGB">
<feFlood flood-opacity="0" result="BackgroundImageFix"/>
<feColorMatrix in="SourceAlpha" type="matrix" values="0 0 0 0 0 0 0 0 0 0 0 0 0 0 0 0 0 0 127 0" result="hardAlpha"/>
<feOffset dy="2"/>
<feGaussianBlur stdDeviation="5"/>
<feComposite in2="hardAlpha" operator="out"/>
<feColorMatrix type="matrix" values="0 0 0 0 0.25098 0 0 0 0 0.262745 0 0 0 0 0.305882 0 0 0 0.2 0"/>
<feBlend mode="normal" in2="BackgroundImageFix" result="effect1_dropShadow_905_36"/>
<feBlend mode="normal" in="SourceGraphic" in2="effect1_dropShadow_905_36" result="shape"/>
</filter>
</defs>
</svg>
